<?xml version="1.0" encoding="utf-8"?>
<!-- Generator: Adobe Illustrator 25.0.1, SVG Export Plug-In . SVG Version: 6.00 Build 0)  -->
<svg version="1.1" id="Layer_1" xmlns="http://www.w3.org/2000/svg" xmlns:xlink="http://www.w3.org/1999/xlink" x="0px" y="0px"
	 viewBox="0 0 500 500" style="enable-background:new 0 0 500 500;" xml:space="preserve">
<style type="text/css">
	.st0{fill:#E2E5E7;}
	.st1{fill:#B0B7BD;}
	.st2{fill:#CAD1D8;}
	.st3{fill:#3D54A5;}
	.st4{fill:#FFFFFF;}
</style>
<path id="XMLID_24_" class="st0" d="M156.4,59.9c-12.9,0-23.4,10.5-23.4,23.4v327.8c0,12.9,10.5,23.4,23.4,23.4h234.1
	c12.9,0,23.4-10.5,23.4-23.4V153.6l-93.6-93.6H156.4z"/>
<path id="XMLID_22_" class="st1" d="M343.6,153.6h70.2l-93.6-93.6v70.2C320.2,143.1,330.8,153.6,343.6,153.6z"/>
<polygon id="XMLID_21_" class="st2" points="413.9,223.8 343.6,153.6 413.9,153.6 "/>
<path id="XMLID_20_" class="st3" d="M367.1,364.3c0,6.4-5.3,11.7-11.7,11.7H97.8c-6.4,0-11.7-5.3-11.7-11.7V247.2
	c0-6.4,5.3-11.7,11.7-11.7h257.5c6.4,0,11.7,5.3,11.7,11.7V364.3z"/>
<g id="XMLID_11_">
	<path id="XMLID_16_" class="st4" d="M-300.9,118.7c0-3.1,2.4-6.5,6.4-6.5h21.6c12.2,0,23.1,8.1,23.1,23.8c0,14.8-11,23-23.1,23
		h-15.6v12.4c0,4.1-2.6,6.4-6,6.4c-3.1,0-6.4-2.3-6.4-6.4V118.7z M-288.5,124.1v23.3h15.6c6.3,0,11.2-5.5,11.2-11.3
		c0-6.5-5-12-11.2-12H-288.5z"/>
	<path id="XMLID_13_" class="st4" d="M-231.4,177.9c-3.1,0-6.5-1.7-6.5-5.8v-53.2c0-3.4,3.4-5.8,6.5-5.8h21.4
		c42.8,0,41.8,64.8,0.8,64.8H-231.4z M-225.5,124.5v41.9h15.5c25.3,0,26.4-41.9,0-41.9L-225.5,124.5L-225.5,124.5z"/>
	<path id="XMLID_12_" class="st4" d="M-153,125.3v14.9h23.9c3.4,0,6.7,3.4,6.7,6.6c0,3.1-3.4,5.6-6.7,5.6H-153v19.7
		c0,3.3-2.3,5.8-5.6,5.8c-4.1,0-6.6-2.5-6.6-5.8v-53.2c0-3.4,2.5-5.8,6.6-5.8h32.9c4.1,0,6.6,2.4,6.6,5.8c0,3-2.4,6.4-6.6,6.4
		L-153,125.3L-153,125.3z"/>
</g>
<path id="XMLID_10_" class="st2" d="M355.3,376H132.9v11.7h222.4c6.4,0,11.7-5.3,11.7-11.7v-11.7C367.1,370.7,361.8,376,355.3,376z"
	/>
<g id="XMLID_26_">
	<path id="XMLID_36_" class="st4" d="M150.2,342.4l-6.6-21.2h-26.3l-6.7,21.2h-6.2l22.1-69.4h7.9l22,69.4H150.2z M130.8,279.3h-0.7
		L118.8,316h23.4L130.8,279.3z"/>
	<path id="XMLID_33_" class="st4" d="M170,342.4V273h24.9c12.2,0,18.8,7.5,18.8,19.5c0,12-6.6,19.5-18.8,19.5h-18.9v30.4H170z
		 M175.9,306.8h18.8c8.3,0,12.6-5.1,12.6-11.9v-4.8c0-6.9-4.4-11.9-12.6-11.9h-18.8V306.8z"/>
	<path id="XMLID_31_" class="st4" d="M224.7,342.4v-4.8h18.2v-59.9h-18.2V273H267v4.8h-18.2v59.9H267v4.8H224.7z"/>
	<path id="XMLID_29_" class="st4" d="M283.3,333.5l3.9-3.4c5.1,5.8,11,8.7,19.6,8.7c9,0,15.2-3.4,15.2-10.5c0-6.3-4.8-8-11-8.9
		l-8-1.1c-8.1-1.2-17-3.4-17-13.7c0-10.1,8.6-14.7,19.8-14.7c9.5,0,15.9,3.5,20.4,8.2l-3.8,3.6c-2.8-3.3-7.6-7-16.9-7
		c-8.7,0-13.8,3.2-13.8,9.5c0,6.3,4.8,8,10.9,8.9l8.1,1.2c8.1,1.2,16.9,3.4,16.9,13.7c0,10.2-8.6,15.6-20.9,15.6
		C296.3,343.6,288.7,339.9,283.3,333.5z"/>
</g>
</svg>
