<?xml version="1.0" encoding="utf-8"?>
<!-- Generator: Adobe Illustrator 25.0.1, SVG Export Plug-In . SVG Version: 6.00 Build 0)  -->
<svg version="1.1" id="Layer_1" xmlns="http://www.w3.org/2000/svg" xmlns:xlink="http://www.w3.org/1999/xlink" x="0px" y="0px"
	 viewBox="0 0 500 500" style="enable-background:new 0 0 500 500;" xml:space="preserve">
<style type="text/css">
	.st0{fill:#3D54A5;}
</style>
<g id="XMLID_3_">
	<g id="XMLID_9_">
		<path id="XMLID_10_" class="st0" d="M176.8,326.4l32.9-88.5L399.8,47.3c14.9-15,40.2-15.2,55.9-0.2l0.2,0.2
			c7.6,7.6,11.8,17.5,11.8,27.9c0,10.4-4.2,20.3-11.8,27.9L260.5,296.2L176.8,326.4z M228.2,252.6l-12.4,34.6l34.1-12.3L439.2,86.4
			c3.1-3.1,4.8-7.1,4.8-11.2c0-4.1-1.7-8-4.8-11.1c-6.8-6.4-16.6-6.3-22.8-0.1L228.2,252.6z"/>
	</g>
	<g id="XMLID_8_">
		<polygon id="XMLID_14_" class="st0" points="408.6,464.1 78.4,464.1 78.4,39.5 342.8,39.5 342.8,63.1 102,63.1 102,440.5 
			385,440.5 385,216 408.6,216 		"/>
	</g>
</g>
</svg>
