<?xml version="1.0" encoding="utf-8"?>
<!-- Generator: Adobe Illustrator 25.0.1, SVG Export Plug-In . SVG Version: 6.00 Build 0)  -->
<svg version="1.1" id="Layer_1" xmlns="http://www.w3.org/2000/svg" xmlns:xlink="http://www.w3.org/1999/xlink" x="0px" y="0px"
	 viewBox="0 0 500 500" style="enable-background:new 0 0 500 500;" xml:space="preserve">
<style type="text/css">
	.st0{fill:#3D54A5;}
</style>
<path id="XMLID_7_" class="st0" d="M343.3,203.3v-72.8c0-49.9-41.9-90.5-93.3-90.5c-51.5,0-93.3,40.6-93.3,90.5v72.8h-70V460h326.7
	V203.3H343.3z M180,130.5c0-37.1,31.4-67.2,70-67.2s70,30.2,70,67.2v72.8H180V130.5z M390,436.7H110v-210h280V436.7z"/>
<path id="XMLID_3_" class="st0" d="M275.6,289.6c0-14.1-11.4-25.6-25.6-25.6s-25.6,11.4-25.6,25.6c0,7.7,3.4,14.6,8.8,19.3
	l-8.7,82.1h50.9l-8.9-82C272.1,304.3,275.6,297.3,275.6,289.6z"/>
</svg>
