<?xml version="1.0" encoding="utf-8"?>
<!-- Generator: Adobe Illustrator 25.0.1, SVG Export Plug-In . SVG Version: 6.00 Build 0)  -->
<svg version="1.1" id="Layer_1" xmlns="http://www.w3.org/2000/svg" xmlns:xlink="http://www.w3.org/1999/xlink" x="0px" y="0px"
	 viewBox="0 0 500 500" style="enable-background:new 0 0 500 500;" xml:space="preserve">
<style type="text/css">
	.st0{fill:#E2E5E7;}
	.st1{fill:#B0B7BD;}
	.st2{fill:#CAD1D8;}
	.st3{fill:#3D54A5;}
	.st4{fill:#FFFFFF;}
</style>
<g id="XMLID_26_">
	<path id="XMLID_24_" class="st0" d="M156.4,59.9c-12.9,0-23.4,10.5-23.4,23.4v327.8c0,12.9,10.5,23.4,23.4,23.4h234.1
		c12.9,0,23.4-10.5,23.4-23.4V153.6l-93.6-93.6H156.4z"/>
	<path id="XMLID_22_" class="st1" d="M343.6,153.6h70.2l-93.6-93.6v70.2C320.2,143.1,330.8,153.6,343.6,153.6z"/>
	<polygon id="XMLID_21_" class="st2" points="413.9,223.8 343.6,153.6 413.9,153.6 	"/>
	<path id="XMLID_20_" class="st3" d="M367.1,364.3c0,6.4-5.3,11.7-11.7,11.7H97.8c-6.4,0-11.7-5.3-11.7-11.7V247.2
		c0-6.4,5.3-11.7,11.7-11.7h257.5c6.4,0,11.7,5.3,11.7,11.7V364.3z"/>
	<g id="XMLID_11_">
		<path id="XMLID_16_" class="st4" d="M137.1,281.7c0-3.1,2.4-6.5,6.4-6.5h21.6c12.2,0,23.1,8.1,23.1,23.8c0,14.8-11,23-23.1,23
			h-15.6v12.4c0,4.1-2.6,6.4-6,6.4c-3.1,0-6.4-2.3-6.4-6.4V281.7z M149.5,287.1v23.3h15.6c6.3,0,11.2-5.5,11.2-11.3
			c0-6.5-5-12-11.2-12H149.5z"/>
		<path id="XMLID_13_" class="st4" d="M206.6,340.9c-3.1,0-6.5-1.7-6.5-5.8v-53.2c0-3.4,3.4-5.8,6.5-5.8H228
			c42.8,0,41.8,64.8,0.8,64.8H206.6z M212.5,287.5v41.9H228c25.3,0,26.4-41.9,0-41.9L212.5,287.5L212.5,287.5z"/>
		<path id="XMLID_12_" class="st4" d="M285,288.3v14.9h23.9c3.4,0,6.7,3.4,6.7,6.6c0,3.1-3.4,5.6-6.7,5.6H285v19.7
			c0,3.3-2.3,5.8-5.6,5.8c-4.1,0-6.6-2.5-6.6-5.8v-53.2c0-3.4,2.5-5.8,6.6-5.8h32.9c4.1,0,6.6,2.4,6.6,5.8c0,3-2.4,6.4-6.6,6.4
			L285,288.3L285,288.3z"/>
	</g>
	<path id="XMLID_10_" class="st2" d="M355.3,376H132.9v11.7h222.4c6.4,0,11.7-5.3,11.7-11.7v-11.7C367.1,370.7,361.8,376,355.3,376z
		"/>
</g>
</svg>
