<?xml version="1.0" encoding="utf-8"?>
<!-- Generator: Adobe Illustrator 25.0.1, SVG Export Plug-In . SVG Version: 6.00 Build 0)  -->
<svg version="1.1" id="Layer_1" xmlns="http://www.w3.org/2000/svg" xmlns:xlink="http://www.w3.org/1999/xlink" x="0px" y="0px"
	 viewBox="0 0 500 500" style="enable-background:new 0 0 500 500;" xml:space="preserve">
<style type="text/css">
	.st0{fill:#3D54A5;}
</style>
<g id="XMLID_7_">
	<g id="XMLID_2_">
		<path id="XMLID_4_" class="st0" d="M325.8,444.8H174.2c-23.5,0-43.3-19.8-43.3-43.3v-303c0-23.5,19.8-43.3,43.3-43.3h151.5
			c23.5,0,43.3,19.8,43.3,43.3v303C369,425,349.2,444.8,325.8,444.8z M174.2,76.8c-11.3,0-21.6,10.3-21.6,21.6v303
			c0,11.3,10.3,21.6,21.6,21.6h151.5c11.3,0,21.6-10.3,21.6-21.6v-303c0-11.3-10.3-21.6-21.6-21.6H174.2z"/>
	</g>
	<g id="XMLID_1_">
		<circle id="XMLID_3_" class="st0" cx="250" cy="390.7" r="17.3"/>
	</g>
</g>
</svg>
