<?xml version="1.0" encoding="utf-8"?>
<!-- Generator: Adobe Illustrator 25.0.1, SVG Export Plug-In . SVG Version: 6.00 Build 0)  -->
<svg version="1.1" id="Layer_1" xmlns="http://www.w3.org/2000/svg" xmlns:xlink="http://www.w3.org/1999/xlink" x="0px" y="0px"
	 viewBox="0 0 500 500" style="enable-background:new 0 0 500 500;" xml:space="preserve">
<style type="text/css">
	.st0{fill:#3D54A5;}
</style>
<g id="XMLID_19_">
	<g>
		<path id="XMLID_48_" class="st0" d="M373.2,84c-6.6,0-12.9,1.6-18.6,4.4c-3.8-22.3-22-39.2-43.8-39.2c-6.8,0-13.3,1.7-19.1,4.7
			c-4.8-20.9-22.4-36.4-43.2-36.4s-38.4,15.5-43.2,36.4c-5.8-3-12.3-4.7-19.1-4.7c-24.6,0-44.5,21.5-44.5,48v117.3
			c-5.5-2.6-11.5-4-17.8-4c-24.6,0-44.5,21.5-44.5,48V357c0,69.3,52.3,125.7,116.7,125.7h105.1c64.3,0,116.7-56.4,116.7-125.7v-225
			C417.8,105.5,397.8,84,373.2,84z M391,357c0,53.4-40.4,96.9-90,96.9H195.9c-49.6,0-90-43.5-90-96.9v-98.6c0-10.6,8-19.2,17.8-19.2
			s17.8,8.6,17.8,19.2v76.7h26.7V97.1c0-10.6,8-19.2,17.8-19.2c9.8,0,17.8,8.6,17.8,19.2v151.6h26.7V65.3c0-10.6,8-19.2,17.8-19.2
			c9.8,0,17.8,8.6,17.8,19.2v183.4H293V97.1c0-10.6,8-19.2,17.8-19.2s17.8,8.6,17.8,19.2v151.6h26.7V131.9c0-10.6,8-19.2,17.8-19.2
			c9.8,0,17.8,8.6,17.8,19.2V357z"/>
	</g>
</g>
</svg>
