<?xml version="1.0" encoding="utf-8"?>
<!-- Generator: Adobe Illustrator 25.0.1, SVG Export Plug-In . SVG Version: 6.00 Build 0)  -->
<svg version="1.1" id="Layer_1" xmlns="http://www.w3.org/2000/svg" xmlns:xlink="http://www.w3.org/1999/xlink" x="0px" y="0px"
	 viewBox="0 0 500 500" style="enable-background:new 0 0 500 500;" xml:space="preserve">
<style type="text/css">
	.st0{fill:#3D54A5;}
</style>
<path id="XMLID_3_" class="st0" d="M434.2,218h-0.1l-0.1-75.6c0.1-1.4,0.2-2.9,0.2-4.3c0-47.8-79.2-83.8-184.2-83.8
	s-184.2,36-184.2,83.8V362c0,47.8,79.2,83.8,184.2,83.8s184.2-36,184.2-83.8l-0.1-69.2c0-0.8,0.1-1.6,0.1-2.4h-0.1l-0.1-69
	C434.2,220.2,434.2,219.1,434.2,218z M250,77.3c95,0,161.2,32,161.2,60.8l0,0H411v2.9c-4.2,28-69.1,57.9-161,57.9
	c-95,0-161.2-32-161.2-60.8S155,77.3,250,77.3z M88.8,179.9c30.9,25.5,90.1,42,161.2,42c70.9,0,130.1-16.4,161-41.8v40.2
	c-3.3,28.2-68.5,58.6-161.1,58.6c-95,0-161.2-32-161.2-60.8v-38.2H88.8z M88.8,259.8c30.9,25.5,90.1,42,161.2,42
	c71,0,130.2-16.5,161.1-41.9v32c-2.3,28.3-67.9,59.2-161.1,59.2c-95,0-161.2-32-161.2-60.8V259.8z M250,422.7
	c-95,0-161.2-32-161.2-60.8v-29.8c30.9,25.5,90.1,42,161.2,42s130.3-16.5,161.2-42v29.8C411.2,390.7,345,422.7,250,422.7z"/>
</svg>
