<?xml version="1.0" encoding="utf-8"?>
<!-- Generator: Adobe Illustrator 25.0.1, SVG Export Plug-In . SVG Version: 6.00 Build 0)  -->
<svg version="1.1" id="Layer_1" xmlns="http://www.w3.org/2000/svg" xmlns:xlink="http://www.w3.org/1999/xlink" x="0px" y="0px"
	 viewBox="0 0 500 500" style="enable-background:new 0 0 500 500;" xml:space="preserve">
<style type="text/css">
	.st0{fill:#3D54A5;}
	.st1{fill:#FFFFFF;}
</style>
<g id="XMLID_3_">
	<path id="path10" class="st0" d="M259,59.2h26.4c0,11.8,0,23.6,0,35.5c44.4,0,88.8,0.1,133.2-0.1c7.5,0.3,15.7-0.2,22.3,4.3
		c4.6,6.6,4,14.9,4.3,22.4c-0.2,77-0.1,154-0.1,230.9c-0.2,12.9,1.2,26.1-1.5,38.8c-1.8,9.2-12.9,9.4-20.3,9.8c-46,0.1-92-0.1-138,0
		c0,13.3,0,26.6,0,39.9h-27.5c-67.6-12.3-135.3-23.6-203-35.5c0-103.5,0-207,0-310.5C122.8,82.9,190.9,71.3,259,59.2z"/>
	<path id="path48" class="st1" d="M285.3,108c48.8,0,97.6,0,146.4,0c0,93.2,0,186.3,0,279.5c-48.8,0-97.6,0-146.4,0
		c0-8.9,0-17.7,0-26.6c11.8,0,23.6,0,35.5,0c0-10.3,0-20.7,0-31.1c-11.8,0-23.6,0-35.5,0c0-5.9,0-11.8,0-17.7c11.8,0,23.6,0,35.5,0
		c0-10.3,0-20.7,0-31.1c-11.8,0-23.6,0-35.5,0c0-5.9,0-11.8,0-17.7c11.8,0,23.6,0,35.5,0c0-10.3,0-20.7,0-31.1
		c-11.8,0-23.6,0-35.5,0c0-5.9,0-11.8,0-17.7c11.8,0,23.6,0,35.5,0c0-10.3,0-20.7,0-31.1c-11.8,0-23.6,0-35.5,0c0-5.9,0-11.8,0-17.7
		c11.8,0,23.6,0,35.5,0c0-10.3,0-20.7,0-31.1c-11.8,0-23.6,0-35.5,0C285.3,125.8,285.3,116.9,285.3,108z"/>
	<path id="path72" class="st1" d="M186.1,176.2c10-0.7,20.1-1.3,30.2-1.8c-11.8,24.3-23.7,48.5-35.8,72.7
		c12.2,24.8,24.7,49.5,36.9,74.4c-10.7-0.6-21.3-1.3-32-2c-7.5-18.5-16.7-36.4-22.1-55.7c-6,18-14.6,35-21.6,52.7
		c-9.7-0.1-19.4-0.5-29.1-0.9c11.4-22.3,22.4-44.8,34.2-67c-10-22.8-20.9-45.2-31.2-68c9.8-0.6,19.5-1.2,29.3-1.7
		c6.6,17.3,13.8,34.5,19.3,52.3C169.9,212.2,178.6,194.5,186.1,176.2z"/>
	<g id="XMLID_7_">
		<path id="path58" class="st0" d="M338.6,135.7c20.7,0,41.4,0,62.1,0c0,10.3,0,20.7,0,31.1c-20.7,0-41.4,0-62.1,0
			C338.6,156.4,338.6,146,338.6,135.7z"/>
		<path id="path90" class="st0" d="M338.6,184.5c20.7,0,41.4,0,62.1,0c0,10.3,0,20.7,0,31.1c-20.7,0-41.4,0-62.1,0
			C338.6,205.2,338.6,194.8,338.6,184.5z"/>
		<path id="path108" class="st0" d="M338.6,233.3c20.7,0,41.4,0,62.1,0c0,10.3,0,20.7,0,31.1c-20.7,0-41.4,0-62.1,0
			C338.6,254,338.6,243.6,338.6,233.3z"/>
		<path id="path114" class="st0" d="M338.6,282.1c20.7,0,41.4,0,62.1,0c0,10.3,0,20.7,0,31.1c-20.7,0-41.4,0-62.1,0
			C338.6,302.8,338.6,292.4,338.6,282.1z"/>
		<path id="path120" class="st0" d="M338.6,330.9c20.7,0,41.4,0,62.1,0c0,10.3,0,20.7,0,31.1c-20.7,0-41.4,0-62.1,0
			C338.6,351.6,338.6,341.2,338.6,330.9z"/>
	</g>
</g>
</svg>
